<svg xmlns="http://www.w3.org/2000/svg" xmlns:xlink="http://www.w3.org/1999/xlink" viewBox="0 0 2800 938"><defs><style>.cls-1{isolation:isolate;}.cls-2{fill:url(#linear-gradient);}.cls-3,.cls-4{fill:#0077db;mix-blend-mode:screen;}.cls-3{opacity:0.05;}.cls-4{opacity:0.07;}.cls-5{fill:#fff;}.cls-6{opacity:0.2;}.cls-7{fill:none;stroke:#fff;stroke-miterlimit:10;stroke-width:2px;}.cls-8{opacity:0.15;}</style><linearGradient id="linear-gradient" x1="1400.5" y1="903.62" x2="1400.5" y2="-0.43" gradientUnits="userSpaceOnUse"><stop offset="0" stop-color="#0077db"/><stop offset="1" stop-color="#0077db"/></linearGradient></defs><title>background</title><g className="cls-1"><g id="Layer_2" data-name="Layer 2"><rect className="cls-2" x="0.5" y="-0.5" width="2800" height="938"/><circle className="cls-3" cx="1392" cy="468.5" r="318"/><circle className="cls-3" cx="1400" cy="461.5" r="233"/><polygon className="cls-4" points="-909 1252.5 -909 230.5 178 1317.5 178 2339.5 -909 1252.5"/><polygon className="cls-4" points="2530 -329.5 2530 -1351.5 3617 -264.5 3617 757.5 2530 -329.5"/><circle className="cls-3" cx="1400" cy="457.5" r="122"/><circle className="cls-3" cx="1392" cy="468.5" r="63"/><path className="cls-5" d="M-.5,888.49c62.25-62.24,662.5,32,1037.5,32,801.25,0,1476.08-363.54,1765-117,25.92,22.12-1,136-1,136H-.5S-9.52,897.51-.5,888.49Z"/><g className="cls-6"><path className="cls-7" d="M-126.5,976s471-301,1405-181S2801-.5,2801-.5"/><circle className="cls-5" cx="874" cy="766.5" r="6"/><circle className="cls-5" cx="1317" cy="800.5" r="6"/><circle className="cls-5" cx="1908" cy="723.5" r="6"/><circle className="cls-5" cx="2428" cy="411.5" r="6"/></g><g className="cls-8"><path className="cls-7" d="M-94.5,844s604-339,1515-178,1445-487,1445-487"/><circle className="cls-5" cx="874" cy="623.5" r="6"/><circle className="cls-5" cx="1317" cy="648.5" r="6"/><circle className="cls-5" cx="1908" cy="677.5" r="6"/><circle className="cls-5" cx="2428" cy="515.5" r="6"/></g></g></g></svg>