<svg fill="#233141" enable-background="new 0 0 512.02 512.02" height="512" viewBox="0 0 512.02 512.02" width="512" xmlns="http://www.w3.org/2000/svg"><g><path d="m510.331 170.48c-1.85-2.81-4.98-4.5-8.35-4.5h-43.17c-5.52 0-10 4.48-10 10s4.48 10 10 10h27.97l-28.47 66.04c-2.19 5.07.15 10.96 5.22 13.14 1.29.56 2.63.82 3.95.82 3.87 0 7.56-2.26 9.19-6.04l34.49-80c1.34-3.09 1.02-6.64-.83-9.46z"/><path d="m422.451 165.9c-5.15-2.01-10.94.53-12.95 5.68l-31.21 80c-2.01 5.14.54 10.94 5.68 12.95 1.2.46 2.43.68 3.63.68 4 0 7.78-2.41 9.32-6.36l31.21-80c2.01-5.15-.54-10.95-5.68-12.95z"/><path d="m348.331 348.87c-6.43-11.14-16.81-19.1-29.23-22.43s-25.39-1.62-36.53 4.81l-40.71 23.51c-1.92 1.11-4.16 1.4-6.3.83-2.14-.58-3.93-1.95-5.03-3.87l-91.67-158.77c-1.11-1.92-1.4-4.15-.83-6.29.58-2.14 1.95-3.93 3.87-5.04l40.71-23.5c22.99-13.27 30.89-42.77 17.62-65.76l-39.44-68.31c-13.27-22.98-42.76-30.88-65.75-17.61l-13.83 7.98c-77.55 44.78-104.22 144.3-59.45 221.85l33.69 58.35c2.76 4.78 8.88 6.42 13.66 3.66 4.79-2.76 6.42-8.88 3.66-13.66l-33.69-58.35c-32.12-55.65-22.29-124.19 19.6-168.78l65.46 113.39c-2.51 3.07-4.37 6.66-5.43 10.6-1.95 7.3-.95 14.93 2.83 21.47l91.67 158.77c3.77 6.55 9.88 11.23 17.18 13.19 3.94 1.05 7.98 1.24 11.9.59l65.07 112.72c-22.65 5.37-46.41 5.08-69.52-1.12-36.74-9.84-67.45-33.41-86.47-66.35l-33.6-58.19c-2.76-4.79-8.88-6.42-13.66-3.66s-6.42 8.87-3.66 13.66l33.6 58.19c21.69 37.57 56.71 64.44 98.61 75.67 13.99 3.75 28.19 5.6 42.3 5.6 28.14 0 55.91-7.38 80.94-21.82l13.83-7.99c11.13-6.43 19.1-16.81 22.43-29.23 3.32-12.42 1.62-25.39-4.81-36.52zm-274.57-305.26c5.44-4.32 11.26-8.29 17.45-11.87l13.83-7.98c13.44-7.76 30.68-3.14 38.43 10.29l39.44 68.31c7.76 13.44 3.14 30.68-10.3 38.44l-32.05 18.5zm299.08 404.2c-1.95 7.25-6.6 13.32-13.11 17.08l-13.83 7.99c-6.16 3.55-12.51 6.62-19 9.19l-66.38-114.99 32.05-18.51c6.51-3.76 14.09-4.75 21.35-2.81 7.26 1.95 13.33 6.6 17.08 13.11l39.03 67.59c3.75 6.51 4.75 14.09 2.81 21.35z"/><path d="m304.301 240.71h29.26v15.27c0 5.52 4.48 10 10 10 5.53 0 10-4.48 10-10v-15.27h.02c5.52 0 10-4.48 10-10s-4.48-10-10-10l-.02-39.87c0-6.99-4.39-13.19-10.67-15.06-4.88-1.45-11.79-.41-16.56 6.89-3.81 5.81-27.98 48.27-30.72 53.1-1.76 3.09-1.74 6.89.05 9.97s5.08 4.97 8.64 4.97zm29.26-40.96v20.96h-12.04c4.13-7.21 8.39-14.64 12.04-20.96z"/><path d="m219.271 201.98c5.42 1.06 10.68-2.47 11.74-7.89.92-4.7 5.08-8.11 9.89-8.11 5.36 0 9.76 4.21 10.06 9.5-.33 2.15-.9 4.15-1.71 5.97-1.21 2.74-2.96 5.74-5.2 8.94-24.63 35.19-27.77 39.64-27.89 39.81-2.16 3.05-2.44 7.05-.72 10.37 1.71 3.32 5.14 5.41 8.88 5.41h39.98c5.53 0 10-4.48 10-10s-4.47-10-10-10h-20.75c4.03-5.75 9.49-13.55 16.89-24.12 2.98-4.25 5.37-8.4 7.1-12.31 1.67-3.78 2.8-7.89 3.36-12.23.05-.42.08-.84.08-1.26 0-16.59-13.5-30.08-30.08-30.08-14.34 0-26.75 10.2-29.51 24.26-1.07 5.42 2.46 10.67 7.88 11.74z"/><path d="m86.721 318.53c-2.64 0-5.21 1.07-7.07 2.93s-2.93 4.43-2.93 7.07c0 2.63 1.07 5.21 2.93 7.07s4.43 2.93 7.07 2.93c2.63 0 5.21-1.07 7.07-2.93s2.93-4.44 2.93-7.07c0-2.64-1.07-5.21-2.93-7.07s-4.44-2.93-7.07-2.93z"/></g></svg>