<?xml version="1.0" encoding="iso-8859-1"?>
<!-- Generator: Adobe Illustrator 19.0.0, SVG Export Plug-In . SVG Version: 6.00 Build 0)  -->
<svg fill="#233141" enable-background="new 0 0 512.002 512.002" height="512" viewBox="0 0 512.002 512.002" width="512" xmlns="http://www.w3.org/2000/svg">
<g>
	<g>
		<g>
			<path d="M404.49,0c-5.471,0-9.926,4.397-9.999,9.869c-0.203,15.437-12.926,27.996-28.364,27.996
				c-15.436,0-28.16-12.559-28.363-27.996C337.693,4.397,333.211,0,327.739,0c-5.472,0-9.928,4.398-10,9.87
				c-0.202,15.436-12.926,27.995-28.363,27.995s-28.161-12.559-28.364-27.996C260.94,4.397,256.46,0,250.988,0
				c-5.472,0-9.928,4.397-9.999,9.869c-0.203,15.437-12.927,27.996-28.364,27.996s-28.161-12.559-28.364-27.996
				C184.189,4.397,179.708,0,174.236,0s-9.928,4.397-9.998,9.869c-0.203,15.437-12.926,27.996-28.364,27.996
				c-15.438,0-28.161-12.559-28.364-27.996C107.438,4.397,102.97,0,97.498,0c-5.523,0-10,4.477-10,10v482.001
				c0,5.523,4.49,10,10.013,10c5.472,0,9.927-4.398,9.999-9.869c0.203-15.437,12.926-27.996,28.364-27.996
				c15.438,0,28.161,12.559,28.364,27.996c0.072,5.472,4.553,9.869,10.025,9.869s9.927-4.398,9.999-9.869
				c0.203-15.437,12.927-27.996,28.364-27.996s28.161,12.559,28.364,27.996c0.071,5.472,4.552,9.869,10.024,9.869
				c5.472,0,9.927-4.398,9.999-9.869c0.203-15.437,12.927-27.996,28.364-27.996s28.161,12.558,28.363,27.995
				c0.071,5.471,4.553,9.869,10.025,9.869s9.928-4.398,9.999-9.869c0.203-15.437,12.926-27.996,28.363-27.996
				s28.161,12.559,28.364,27.996c0.073,5.472,4.54,9.869,10.012,9.869c5.523,0,10-4.477,10-10V10C414.503,4.477,410.012,0,404.49,0z
				 M394.503,453.417c-7.993-5.832-17.812-9.281-28.376-9.281c-15.561,0-29.504,7.483-38.375,19.04
				c-8.872-11.557-22.814-19.04-38.376-19.04c-15.561,0-29.504,7.483-38.376,19.04c-8.872-11.557-22.815-19.04-38.376-19.04
				c-15.56,0-29.504,7.483-38.375,19.039c-8.872-11.557-22.815-19.04-38.376-19.04c-10.564,0-20.383,3.449-28.376,9.281V48.583
				c7.993,5.832,17.812,9.281,28.376,9.281c15.561,0,29.504-7.483,38.376-19.04c8.871,11.557,22.814,19.04,38.375,19.04
				c15.561,0,29.504-7.483,38.376-19.04c8.872,11.557,22.815,19.04,38.376,19.04c15.562,0,29.504-7.483,38.376-19.04
				c8.871,11.557,22.814,19.04,38.375,19.04c10.564,0,20.383-3.449,28.376-9.281V453.417z"/>
			<path d="M349.242,115.639h-14.327c-5.522,0-10,4.477-10,10c0,5.523,4.478,10,10,10h14.327c5.523,0,10-4.477,10-10
				C359.242,120.116,354.764,115.639,349.242,115.639z"/>
			<path d="M349.242,177.041H152.758c-5.523,0-10,4.477-10,10c0,5.523,4.477,10,10,10h196.484c5.523,0,10-4.477,10-10
				C359.242,181.518,354.764,177.041,349.242,177.041z"/>
			<path d="M349.242,238.441H152.758c-5.523,0-10,4.477-10,10c0,5.523,4.477,10,10,10h196.484c5.523,0,10-4.477,10-10
				C359.242,242.918,354.764,238.441,349.242,238.441z"/>
			<path d="M349.242,299.843H152.758c-5.523,0-10,4.477-10,10s4.477,10,10,10h196.484c5.523,0,10-4.477,10-10
				S354.764,299.843,349.242,299.843z"/>
			<path d="M349.242,366.361h-40.935c-5.522,0-10,4.477-10,10s4.478,10,10,10h40.935c5.523,0,10-4.477,10-10
				S354.764,366.361,349.242,366.361z"/>
			<path d="M152.758,135.639h148.387c5.522,0,10-4.477,10-10c0-5.523-4.478-10-10-10H152.758c-5.523,0-10,4.477-10,10
				C142.758,131.162,147.235,135.639,152.758,135.639z"/>
		</g>
	</g>
</g>
<g>
</g>
<g>
</g>
<g>
</g>
<g>
</g>
<g>
</g>
<g>
</g>
<g>
</g>
<g>
</g>
<g>
</g>
<g>
</g>
<g>
</g>
<g>
</g>
<g>
</g>
<g>
</g>
<g>
</g>
</svg>
