<svg fill="#233141" enable-background="new 0 0 512.001 512.001" height="512" viewBox="0 0 512.001 512.001" width="512" xmlns="http://www.w3.org/2000/svg"><g><path d="m510.464 469.672-17-27c-2.943-4.674-9.118-6.076-13.791-3.134-4.674 2.942-6.077 9.116-3.134 13.79l7.349 11.672h-123.887v-35.46c0-5.51-4.49-10-10-10s-10 4.49-10 10v35.46h-140v-130.499l72.295-30.083 67.705-4.231v39.354c0 5.51 4.49 10 10 10s10-4.49 10-10v-13.668l52.414 87.997-13.754-.42c-5.512-.149-10.132 4.17-10.3 9.69-.169 5.52 4.169 10.132 9.69 10.3l31.891.974c.103.003.205.005.307.005 3.728 0 7.159-2.078 8.88-5.404l14.662-28.337c2.538-4.905.619-10.939-4.286-13.478-4.906-2.535-10.939-.619-13.477 4.286l-6.353 12.278-71.083-119.338c-1.917-3.22-5.465-5.088-9.215-4.863l-80 5c-1.106.069-2.194.322-3.218.748l-76.073 31.655-72.996-31.721-70.089-125.842v-131.289l11.672 7.349c1.655 1.043 3.498 1.54 5.319 1.539 3.321 0 6.571-1.654 8.472-4.673 2.942-4.674 1.54-10.848-3.134-13.79l-27-17c-3.256-2.051-7.4-2.051-10.656 0l-27 17c-4.674 2.942-6.077 9.116-3.134 13.79s9.118 6.076 13.791 3.134l11.672-7.349v43.886h-11.75c-5.523 0-10 4.478-10 10s4.477 10 10 10h11.75v60h-11.75c-5.523 0-10 4.478-10 10s4.477 10 10 10h11.75v60h-11.75c-5.523 0-10 4.478-10 10s4.477 10 10 10h11.75v60h-11.75c-5.523 0-10 4.478-10 10s4.477 10 10 10h11.75v60h-11.75c-5.523 0-10 4.478-10 10s4.477 10 10 10h11.75v53h-17c-5.523 0-10 4.478-10 10s4.477 10 10 10h17v17c0 5.522 4.477 10 10 10s10-4.478 10-10v-17h53v11.75c0 5.522 4.477 10 10 10s10-4.478 10-10v-11.75h60v11.75c0 5.522 4.477 10 10 10s10-4.478 10-10v-11.75h60v11.75c0 5.522 4.477 10 10 10s10-4.478 10-10v-11.75h60v11.75c0 5.522 4.477 10 10 10s10-4.478 10-10v-11.75h60v11.75c0 5.522 4.477 10 10 10s10-4.478 10-10v-11.75h43.887l-7.349 11.672c-2.942 4.674-1.54 10.848 3.134 13.79 1.655 1.043 3.498 1.539 5.319 1.539 3.321 0 6.571-1.654 8.472-4.673l17-27c2.048-3.256 2.048-7.4-.002-10.656zm-463.463-4.672v-264.494l54.264 97.427c1.068 1.917 2.737 3.431 4.751 4.306l73.985 32.151v130.61z"/><circle cx="350.001" cy="384.54" r="10"/></g></svg>