<svg fill="#233141" enable-background="new 0 0 512.002 512.002" height="512" viewBox="0 0 512.002 512.002" width="512" xmlns="http://www.w3.org/2000/svg"><g><g><path d="m256.005 141.43h-.007c-5.523 0-9.997 4.477-9.997 10s4.481 10 10.004 10 10-4.477 10-10-4.477-10-10-10z"/><path d="m500.407 103.429c-3.293-14.045-11.527-26.363-23.209-34.824 2.162-4.812 3.375-10.14 3.375-15.748v-14.286c0-21.268-17.303-38.571-38.572-38.571s-38.571 17.303-38.571 38.571v14.286c0 5.608 1.213 10.936 3.375 15.748-11.684 8.46-19.917 20.776-23.21 34.824-6.843 3.276-11.593 10.248-11.593 18.328v59.343c0 11.209 9.119 20.328 20.328 20.328h39.672v55.286h-166.001v-55.284h39.672c11.209 0 20.329-9.119 20.329-20.328v-59.343c0-8.08-4.75-15.053-11.594-18.329-3.293-14.045-11.527-26.364-23.21-34.824 2.162-4.813 3.375-10.14 3.375-15.748v-14.287c-.001-21.268-17.304-38.571-38.572-38.571s-38.571 17.303-38.571 38.571v14.286c0 5.608 1.213 10.936 3.375 15.748-11.684 8.46-19.918 20.776-23.21 34.825-6.843 3.275-11.593 10.248-11.593 18.328v59.343c0 11.209 9.119 20.328 20.328 20.328h39.671v55.286h-38c-5.523 0-10 4.477-10 10s4.477 10 10 10h38v55.286h-80c-11.028 0-20 8.972-20 20v40c0 7.383 4.032 13.829 10 17.293v25.414c-5.968 3.465-10 9.911-10 17.294v40c0 11.028 8.972 20 20 20h180c11.028 0 20-8.972 20-20v-40c0-7.383-4.032-13.829-10-17.294v-25.414c5.968-3.465 10-9.91 10-17.293v-40c0-11.028-8.972-20-20-20h-80v-55.286h176.001c5.523 0 10-4.477 10-10v-65.285h39.672c11.209 0 20.328-9.119 20.328-20.328v-59.343c0-8.081-4.751-15.054-11.595-18.33zm-244.406-12c8.4 0 16.174-2.707 22.515-7.283 6.356 4.339 11.267 10.339 14.245 17.284h-73.52c2.978-6.945 7.889-12.944 14.246-17.283 6.34 4.575 14.114 7.282 22.514 7.282zm-18.572-52.858c0-10.24 8.331-18.571 18.571-18.571s18.571 8.331 18.571 18.571v14.286c0 10.24-8.331 18.571-18.571 18.571s-18.571-8.331-18.571-18.571zm-31.428 142.531v-59.343c0-.156.171-.328.327-.328.004 0 .009.001.013.001.007 0 .014-.001.021-.001h99.276c.007 0 .014.001.021.001.005 0 .009-.001.014-.001.156 0 .328.172.328.328v59.343c0 .156-.172.328-.329.328h-99.343c-.156 0-.328-.172-.328-.328zm.002 170.9v39.998.001h-39.992c-.003 0-.006 0-.009 0l-.002-39.999zm-30.002 80v-20.001h160v20.001zm-10.002 20h40.004v39.999h-40.001zm180.002 40h-119.998v-39.999h119.998zm0-100.001h-119.998s0 0 0-.001v-39.998s0 0 0-.001h119.998zm96.001-300.572c8.399 0 16.174-2.707 22.515-7.282 6.356 4.339 11.267 10.339 14.245 17.283h-73.52c2.978-6.946 7.889-12.944 14.246-17.283 6.34 4.575 14.114 7.282 22.514 7.282zm-18.572-52.858c0-10.24 8.331-18.571 18.571-18.571 10.24 0 18.571 8.331 18.571 18.571v14.286c0 10.24-8.331 18.571-18.572 18.571-10.24 0-18.571-8.331-18.571-18.571v-14.286zm68.572 142.531c0 .156-.172.328-.328.328h-99.344c-.156 0-.328-.172-.328-.328v-59.343c0-.156.171-.328.327-.328.004 0 .009.001.013.001.007 0 .014-.001.021-.001h99.276c.007 0 .014.001.021.001.005 0 .009-.001.014-.001.156 0 .327.172.327.328v59.343z"/><path d="m442.005 141.43h-.007c-5.523 0-9.997 4.477-9.997 10s4.481 10 10.004 10 10-4.477 10-10-4.477-10-10-10z"/><path d="m128.406 103.43c-3.293-14.045-11.527-26.364-23.21-34.824 2.162-4.813 3.375-10.14 3.375-15.748v-14.287c0-21.268-17.303-38.571-38.571-38.571s-38.572 17.303-38.572 38.571v14.286c0 5.608 1.213 10.936 3.375 15.748-11.684 8.46-19.918 20.776-23.21 34.825-6.843 3.276-11.593 10.248-11.593 18.328v59.343c0 11.209 9.119 20.328 20.328 20.328h39.672v65.286c0 5.523 4.477 10 10 10h48c5.523 0 10-4.477 10-10s-4.477-10-10-10h-38v-55.285h39.671c11.209 0 20.329-9.119 20.329-20.328v-59.343c0-8.081-4.75-15.054-11.594-18.329zm-58.406-12.001c8.399 0 16.174-2.707 22.515-7.283 6.356 4.339 11.267 10.339 14.245 17.284h-73.521c2.978-6.945 7.889-12.944 14.246-17.283 6.341 4.575 14.115 7.282 22.515 7.282zm-18.572-52.858c0-10.24 8.332-18.571 18.572-18.571s18.571 8.331 18.571 18.571v14.286c0 10.24-8.331 18.571-18.571 18.571s-18.571-8.331-18.571-18.571v-14.286zm68.572 142.531c0 .156-.172.328-.329.328h-99.343c-.156 0-.328-.172-.328-.328v-59.343c0-.156.171-.328.327-.328.004 0 .009.001.013.001.007 0 .014-.001.021-.001h99.276c.007 0 .014.001.021.001.004 0 .009-.001.013-.001.157 0 .328.172.328.328v59.343z"/><path d="m70.004 141.43h-.007c-5.523 0-9.997 4.477-9.997 10s4.481 10 10.004 10 10-4.477 10-10-4.477-10-10-10z"/><path d="m163.004 276.716c5.523 0 10-4.477 10-10s-4.477-10-10-10h-.007c-5.523 0-9.996 4.477-9.996 10s4.48 10 10.003 10z"/></g></g></svg>