<?xml version="1.0" encoding="iso-8859-1"?>
<!-- Generator: Adobe Illustrator 19.0.0, SVG Export Plug-In . SVG Version: 6.00 Build 0)  -->
<svg version="1.1" fill="#233141" xmlns="http://www.w3.org/2000/svg" xmlns:xlink="http://www.w3.org/1999/xlink" x="0px" y="0px"
	 viewBox="0 0 502 502" style="enable-background:new 0 0 502 502;" xml:space="preserve">
<g>
	<g>
		<g>
			<path d="M160.797,172.982c4.925-2.5,6.891-8.519,4.391-13.443c-2.5-4.924-8.519-6.89-13.443-4.391
				C89.907,186.535,46.088,245.946,34.527,314.071c-0.924,5.445,2.741,10.608,8.187,11.532c0.566,0.096,1.129,0.143,1.685,0.143
				c4.788,0,9.02-3.45,9.848-8.329C64.751,255.511,104.583,201.516,160.797,172.982z"/>
			<path d="M251,131.483c-14.32,0-28.645,1.389-42.574,4.127c-5.42,1.065-8.949,6.322-7.884,11.741
				c0.938,4.769,5.119,8.073,9.802,8.073c0.64,0,1.288-0.062,1.939-0.189c12.663-2.489,25.688-3.752,38.717-3.752
				c5.522,0,10-4.478,10-10C261,135.962,256.522,131.483,251,131.483z"/>
			<path d="M428.483,171.129C381.076,123.722,318.045,97.613,251,97.613S120.924,123.72,73.517,171.129
				C26.108,218.537,0,281.567,0,348.612c0,5.522,4.478,10,10,10h184.77c5.397,26.097,28.558,45.775,56.23,45.775
				s50.833-19.678,56.23-45.775H492c5.522,0,10-4.478,10-10C502,281.567,475.892,218.537,428.483,171.129z M286.554,358.612
				c-4.908,14.948-18.987,25.775-35.554,25.775s-30.647-10.827-35.554-25.775c-1.204-3.668-1.865-7.579-1.865-11.645
				c0-2.873,0.336-5.667,0.952-8.355c3.808-16.622,18.707-29.063,36.467-29.063c17.76,0,32.659,12.441,36.467,29.063
				c0.616,2.689,0.952,5.483,0.952,8.355C288.419,351.033,287.759,354.945,286.554,358.612z M307.804,338.611v0.001
				c-0.869-5.935-2.655-11.574-5.199-16.777l118.146-85.838c4.468-3.246,5.458-9.5,2.212-13.968
				c-3.245-4.469-9.501-5.459-13.968-2.212l-118.161,85.849c-10.331-9.971-24.375-16.118-39.834-16.118
				c-28.823,0-52.745,21.349-56.804,49.063H20.214c5.255-122.753,106.763-221,230.786-221s225.531,98.247,230.786,221H307.804z"/>
			<path d="M251,167.613c-5.522,0-10,4.478-10,10v35c0,5.522,4.478,10,10,10c5.522,0,10-4.478,10-10v-35
				C261,172.092,256.522,167.613,251,167.613z"/>
			<path d="M208.177,182.811c-1.707-5.252-7.344-8.125-12.602-6.42c-5.252,1.707-8.127,7.349-6.42,12.602l5.516,16.974
				c1.373,4.226,5.293,6.912,9.509,6.912c1.023,0,2.065-0.159,3.093-0.492c5.252-1.707,8.127-7.349,6.42-12.602L208.177,182.811z"/>
			<path d="M159.546,204.079c-3.246-4.469-9.501-5.459-13.968-2.212c-4.468,3.246-5.458,9.5-2.212,13.968l20.572,28.315
				c1.956,2.693,5.006,4.123,8.098,4.123c2.038,0,4.096-0.621,5.87-1.911c4.468-3.246,5.458-9.5,2.212-13.968L159.546,204.079z"/>
			<path d="M135.487,250.683l-15.62-11.349c-4.466-3.246-10.722-2.258-13.968,2.212c-3.247,4.468-2.256,10.722,2.212,13.968
				l15.62,11.349c1.775,1.29,3.831,1.911,5.87,1.911c3.092,0,6.142-1.43,8.098-4.123
				C140.946,260.183,139.955,253.93,135.487,250.683z"/>
			<path d="M126.312,295.939l-33.287-10.816c-5.256-1.705-10.896,1.167-12.602,6.42c-1.706,5.253,1.168,10.895,6.42,12.602
				l33.287,10.816c1.027,0.333,2.068,0.492,3.093,0.492c4.215,0,8.136-2.687,9.509-6.912
				C134.438,303.288,131.563,297.646,126.312,295.939z"/>
			<path d="M408.976,285.123l-33.287,10.816c-5.252,1.707-8.126,7.349-6.42,12.602c1.373,4.226,5.293,6.912,9.509,6.912
				c1.023,0,2.065-0.159,3.093-0.492l33.287-10.816c5.252-1.707,8.126-7.349,6.42-12.602
				C419.871,286.291,414.233,283.417,408.976,285.123z"/>
			<path d="M356.422,201.868c-4.467-3.245-10.721-2.258-13.968,2.212l-20.572,28.315c-3.246,4.468-2.256,10.722,2.212,13.968
				c1.775,1.29,3.831,1.911,5.87,1.911c3.092,0,6.142-1.43,8.098-4.123l20.572-28.315
				C361.88,211.368,360.89,205.113,356.422,201.868z"/>
			<path d="M306.207,177.058c-5.25-1.703-10.894,1.167-12.601,6.421l-5.124,15.77c-1.706,5.252,1.168,10.894,6.421,12.601
				c1.026,0.333,2.067,0.492,3.092,0.492c4.215,0,8.136-2.687,9.509-6.913l5.124-15.77
				C314.334,184.407,311.46,178.766,306.207,177.058z"/>
		</g>
	</g>
</g>
<g>
</g>
<g>
</g>
<g>
</g>
<g>
</g>
<g>
</g>
<g>
</g>
<g>
</g>
<g>
</g>
<g>
</g>
<g>
</g>
<g>
</g>
<g>
</g>
<g>
</g>
<g>
</g>
<g>
</g>
</svg>
