<?xml version="1.0" standalone="no"?>
<!DOCTYPE svg PUBLIC "-//W3C//DTD SVG 1.1//EN" "http://www.w3.org/Graphics/SVG/1.1/DTD/svg11.dtd" >
<svg xmlns="http://www.w3.org/2000/svg" xmlns:xlink="http://www.w3.org/1999/xlink" version="1.1">
<metadata>
Created by FontForge 20200427 at Thu Jun 23 00:13:57 2011
 By www
Made with Scanahand. Copyright (c)  2010. All Rights Reserved.
</metadata>
<defs>
<font id="Outerzone" horiz-adv-x="2253" >
  <font-face 
    font-family="Outer zone"
    font-weight="400"
    font-stretch="normal"
    units-per-em="2048"
    panose-1="3 0 6 0 0 0 0 0 0 0"
    ascent="1638"
    descent="-410"
    x-height="772"
    cap-height="1485"
    bbox="-6 -764 3191 1961"
    underline-thickness="150"
    underline-position="-292"
    unicode-range="U+0020-02DD"
  />
<missing-glyph horiz-adv-x="1496" 
d="M60 0v1884h1356v-1884h-1356zM140 80h1196v1724h-1196v-1724z" />
    <glyph glyph-name=".notdef" horiz-adv-x="1496" 
d="M60 0v1884h1356v-1884h-1356zM140 80h1196v1724h-1196v-1724z" />
    <glyph glyph-name="NULL" horiz-adv-x="0" 
 />
    <glyph glyph-name="nonmarkingreturn" horiz-adv-x="550" 
 />
    <glyph glyph-name="space" unicode=" " horiz-adv-x="819" 
 />
    <glyph glyph-name="space" unicode="&#xa0;" horiz-adv-x="819" 
 />
    <glyph glyph-name="zero" unicode="0" horiz-adv-x="2143" 
d="M1409 1477v-433l-59 8q-131 0 -365 9q-382 -10 -382 -77q-45 0 -51 -331q0 -116 17 -246h-492q-17 0 -17 17v365q0 490 136 569q107 119 645 119h568zM1554 933h509v-475q0 -435 -170 -509q-63 -102 -849 -102h-195q-44 0 -144 9v424q157 -9 229 -9h178q342 0 399 51
q60 64 60 306v76q0 97 -17 229z" />
    <glyph glyph-name="one" unicode="1" horiz-adv-x="1209" 
d="M637 1460h492v-1163h-483v611h-9l-314 -263q-10 1 -263 305v9q45 53 577 501z" />
    <glyph glyph-name="two" unicode="2" horiz-adv-x="2066" 
d="M773 1477h602q480 0 527 -170q59 -70 59 -357q0 -332 -102 -424q-102 -102 -484 -102h-1307v357h1214q212 0 212 85q9 44 9 84q0 162 -102 162q-53 8 -119 8h-458q-280 0 -280 -76q-9 -88 -9 -102h-475q0 376 161 450q147 85 552 85zM85 238h1901v-357q0 -17 -17 -17
h-1867q-25 0 -25 195v94z" />
    <glyph glyph-name="three" unicode="3" horiz-adv-x="1752" 
d="M60 1477h925q431 0 543 -102q119 -99 119 -348q0 -216 -110 -289q-101 -51 -128 -51v-8q96 0 204 -94q59 -84 59 -203v-119q0 -234 -152 -322q-177 -85 -577 -85h-17l-60 -9v374q3 17 17 17h119q195 0 195 101v51q0 102 -153 102q-28 9 -178 9h-356v348h339q314 0 314 84
q0 7 9 51q0 119 -179 119h-25q-690 9 -908 9v365z" />
    <glyph glyph-name="four" unicode="4" horiz-adv-x="2100" 
d="M1010 1485h688q17 -3 17 -17v-679h305v-339q0 -17 -17 -17h-288v-162h-475v162h-1180v356q38 38 950 696zM773 798v-9h467v314h-9q-330 -228 -458 -305z" />
    <glyph glyph-name="five" unicode="5" horiz-adv-x="2058" 
d="M94 1485h1867q17 -3 17 -17v-356h-1901l-9 84v94q0 195 26 195zM60 925h1137q480 0 526 -170q60 -70 60 -356q0 -332 -102 -425q-102 -101 -484 -101h-433q-613 0 -662 212q-42 76 -42 212v119h467v-9q0 -161 85 -161q75 -17 203 -17h289q212 0 212 85q8 44 8 85
q0 161 -101 161q-56 9 -111 9q-226 0 -1052 8v348z" />
    <glyph glyph-name="six" unicode="6" horiz-adv-x="2007" 
d="M1010 1502h9v-365h-76q-391 0 -391 -76q-20 0 -25 -153v-119q95 136 628 136h8q543 0 671 -144q93 -132 93 -374v-25q0 -347 -170 -433q-113 -76 -585 -76h-374q-505 0 -611 127q-127 87 -127 526v390q0 422 204 510q222 76 746 76zM535 416v-26q0 -152 161 -152h442
q297 0 297 67q17 31 17 68v26q0 153 -162 153q-157 8 -339 8h-25q-374 0 -374 -76q-17 -31 -17 -68z" />
    <glyph glyph-name="seven" unicode="7" horiz-adv-x="1956" 
d="M60 1027h1816v-357q0 -42 -348 -483q0 -26 -144 -196h-594v9l467 619h-1197v408z" />
    <glyph glyph-name="eight" unicode="8" horiz-adv-x="1982" 
d="M883 1510v-364h-8q-331 0 -331 -68q-17 -44 -17 -68q0 -128 152 -128q100 0 204 -8v-348h-76q-272 0 -272 -59l-8 -85q0 -136 119 -136q148 0 237 -8v-365q-636 0 -721 118q-102 90 -102 314v722q0 300 136 390q172 93 687 93zM1070 1510q569 0 713 -110
q110 -97 110 -305v-679q0 -47 9 -119q0 -184 -94 -297q-80 -119 -636 -119q0 -8 -102 -8v373h119q237 0 237 76v102q0 94 -136 94q-79 8 -220 8v348h8q340 0 340 59l8 51v43q0 110 -178 110q-128 9 -178 9v364z" />
    <glyph glyph-name="nine" unicode="9" horiz-adv-x="2058" 
d="M841 1493h433q613 0 661 -212q43 -76 43 -212v-628h-1137q-480 0 -526 170q-60 70 -60 356q0 332 102 425q102 101 484 101zM713 967q0 -161 102 -161q53 -8 119 -8h577v127q0 195 -76 195q-93 17 -212 17h-289q-212 0 -212 -85q-9 -44 -9 -85zM60 255h1901l8 -85v-94
q0 -195 -25 -195h-1867q-17 0 -17 17v357z" />
    <glyph glyph-name="A" unicode="A" horiz-adv-x="2346" 
d="M1036 1960h526q-114 -230 -195 -373q85 -136 755 -1434q111 -191 144 -289h-534q-21 0 -153 280h-1519l908 1706q60 110 68 110zM790 492h611v9q-214 438 -306 585q-15 -3 -305 -594z" />
    <glyph glyph-name="B" unicode="B" horiz-adv-x="2143" 
d="M60 1468h594q372 0 1001 -8q157 0 280 -119q68 -116 68 -297q0 -307 -195 -357h-8v-8q163 0 237 -187q17 -80 17 -127v-594q0 -47 9 -119q0 -407 -399 -407q-601 -9 -959 -9h-178v391h365q212 0 602 8q94 0 94 221v407q0 229 -51 229q0 14 -60 17h-950v331h806
q187 0 187 85v68q-12 85 -85 85h-212q-367 0 -1163 8v382z" />
    <glyph glyph-name="C" unicode="C" horiz-adv-x="2151" 
d="M1036 1485h322q505 0 603 -127q110 -87 110 -425v-34q0 -17 -17 -17h-458q-14 0 -42 153q-84 43 -289 43h-416q-254 0 -254 -94q-37 0 -43 -348q0 -365 136 -365q54 -13 382 -25v-399h-178q-551 0 -679 110q-153 97 -153 510v186q0 634 110 671q116 127 289 127
q173 34 577 34z" />
    <glyph glyph-name="D" unicode="D" horiz-adv-x="2245" 
d="M561 1468h288q1044 0 1044 -68q93 0 204 -195q68 -131 68 -509q0 -592 -170 -705q-84 -127 -857 -127h-1078v416h1146q415 0 415 76q43 17 51 204v212q0 208 -110 263q-104 26 -382 26h-619v407z" />
    <glyph glyph-name="E" unicode="E" horiz-adv-x="1914" 
d="M60 832h1697v-357h-1213v-220h1281v-382h-1765v959zM60 1468h1774v-382h-1774v382z" />
    <glyph glyph-name="F" unicode="F" horiz-adv-x="1769" 
d="M77 1468h950v-382h-475v-297h1137v-356q0 -17 -17 -17h-1120v-1180h-492v2215q3 17 17 17z" />
    <glyph glyph-name="G" unicode="G" 
d="M1061 1493v-407h-8q-467 0 -467 -102q-27 0 -34 -220v-187q0 -251 68 -297q26 -17 102 -34q337 -8 492 -8q450 0 450 59q19 0 25 76v85h-636v323h1103q17 -3 17 -17v-26q0 -568 -59 -670q-128 -204 -510 -204q0 -17 -441 -17h-93q-791 0 -866 136q-144 94 -144 484v314
q0 515 187 602q44 71 526 102q235 0 288 8z" />
    <glyph glyph-name="H" unicode="H" 
d="M1664 1884h509v-1629h-518v195h-1077v-560q0 -17 -17 -17h-501v1213h518v-187h1086v985z" />
    <glyph glyph-name="I" unicode="I" horiz-adv-x="658" 
d="M60 1485h518v-1256h-518v1256zM68 -102h510v-390h-510v390z" />
    <glyph glyph-name="J" unicode="J" horiz-adv-x="1820" 
d="M1248 1137h492v-713q0 -359 -169 -458q-148 -102 -645 -102q-596 0 -739 119q-127 99 -127 450v136q3 16 17 16h475q0 -271 94 -271q105 -26 246 -26q339 0 339 85q17 0 17 60v704z" />
    <glyph glyph-name="K" unicode="K" horiz-adv-x="2007" 
d="M60 1909h492v-1001q525 491 645 594h730v-9l-908 -789l424 -356h-704l-187 153v-1239h-492v2647z" />
    <glyph glyph-name="L" unicode="L" horiz-adv-x="1786" 
d="M60 781h518v-476h1128v-415h-1646v891z" />
    <glyph glyph-name="M" unicode="M" horiz-adv-x="2440" 
d="M60 1485h789q43 -59 204 -424h-526q8 -434 8 -637v-534h-475v1595zM2360 1485v-2223h-467v1807h-8q0 -12 -586 -1179h-416q0 19 348 797q178 391 357 798h772z" />
    <glyph glyph-name="N" unicode="N" horiz-adv-x="2262" 
d="M1689 1960h493v-2070h-807q0 13 -712 1018q-96 134 -102 153h-9v-790h-492v1214h798l831 -1171v1646z" />
    <glyph glyph-name="O" unicode="O" horiz-adv-x="2321" 
d="M1146 1510q836 0 900 -93q85 -32 144 -170q51 -153 51 -415v-297q0 -500 -195 -586q-132 -85 -671 -85v424h9q278 0 322 77q43 34 51 271q0 416 -119 416q0 34 -449 34h-43q-534 0 -534 -68q-60 -40 -60 -237v-255q0 -149 94 -204q98 -34 297 -34v-424q-688 0 -756 144
q-127 88 -127 561v263q0 509 195 585q67 93 891 93z" />
    <glyph glyph-name="P" unicode="P" horiz-adv-x="2049" 
d="M60 1485h1112q609 0 670 -127q127 -95 127 -450v-34q0 -420 -169 -509q-128 -85 -433 -85h-823v-390h-484v789h1052q340 0 340 59q25 40 25 153q0 139 -68 170q-128 25 -585 25h-764v399z" />
    <glyph glyph-name="Q" unicode="Q" horiz-adv-x="2321" 
d="M1146 1485q836 0 900 -93q85 -32 144 -170q51 -153 51 -416v-297q0 -418 -127 -535q-109 -127 -552 -127v-356h-484v772h272q365 0 365 93q29 2 42 255q0 416 -119 416q0 34 -449 34h-43q-534 0 -534 -68q-60 -40 -60 -238v-254q0 -221 170 -221v-433h-9q-486 0 -577 195
q-76 135 -76 501v263q0 509 195 586q67 93 891 93z" />
    <glyph glyph-name="R" unicode="R" horiz-adv-x="2126" 
d="M60 1460h1307q448 0 518 -60q152 -108 152 -348q9 -106 9 -119q0 -270 -85 -364q-106 -85 -221 -85h-42q17 -142 17 -433q0 -17 -17 -17h-458q-17 0 -17 17v212h-671v-1010h-492v1417h1095q373 0 373 51q17 55 17 77v135q0 119 -144 119h-1341v408z" />
    <glyph glyph-name="S" unicode="S" horiz-adv-x="2075" 
d="M747 1477h68v-365q-280 0 -280 -94v-51q0 -93 246 -93q976 -28 976 -68q126 -41 178 -136q60 -97 60 -314q0 -363 -204 -458q-112 -59 -925 -59h-51v382l85 -9h85q509 0 509 43q26 44 26 101q0 111 -153 111q-1137 29 -1137 93q-170 88 -170 356v94q0 297 187 407
q146 60 500 60z" />
    <glyph glyph-name="T" unicode="T" horiz-adv-x="2066" 
d="M60 1460h1926v-416h-704v-560h-518v560h-704v416z" />
    <glyph glyph-name="U" unicode="U" horiz-adv-x="2202" 
d="M60 772h484q0 -441 76 -441q37 -60 357 -60h263q348 0 348 94q41 0 50 407h484v-68q0 -485 -59 -611q-77 -139 -272 -203q-178 -43 -611 -43h-170q-656 0 -789 119q-161 107 -161 501v305z" />
    <glyph glyph-name="V" unicode="V" horiz-adv-x="2287" 
d="M60 1884h543q718 -1499 781 -1596l288 611h535l-501 -1026h-662q0 13 -984 2011z" />
    <glyph glyph-name="W" unicode="W" horiz-adv-x="3271" 
d="M60 1468h475q28 0 144 -373q26 -39 281 -781h17q76 294 347 1154h569q24 0 238 -755q25 -53 127 -408h-450l-187 713h-8q-289 -1084 -382 -1383l144 -399h-492q0 14 -823 2215v17zM3191 1468q0 -31 -441 -1163h-484q43 138 416 1163h509z" />
    <glyph glyph-name="X" unicode="X" horiz-adv-x="2779" 
d="M2114 1892h585v-17q-829 -845 -1162 -1196v-9l517 -526h-653l-204 212l-441 -483h-696q0 8 806 806q-361 370 -517 543v8h636q204 -229 212 -229q789 883 798 883q72 8 119 8z" />
    <glyph glyph-name="Y" unicode="Y" horiz-adv-x="2228" 
d="M60 1477h628q520 -637 526 -637q0 20 323 416h611v-9q-576 -677 -679 -806v-288h-509v288q-62 79 -892 1010q-8 17 -8 26z" />
    <glyph glyph-name="Z" unicode="Z" horiz-adv-x="2109" 
d="M960 1477h1035v-365q-19 -28 -560 -408l-586 -433h9q803 9 1094 9q8 0 68 8l9 -17v-390h-1969v382q1074 768 1129 823h-128l-101 -8v399z" />
    <glyph glyph-name="grave" unicode="`" horiz-adv-x="601" 
d="M521 1079h-69l-330 202q-31 20 -46.5 40t-15.5 42q0 31 20.5 51t53.5 20q20 0 40.5 -12t55.5 -47z" />
    <glyph glyph-name="a" unicode="a" horiz-adv-x="2346" 
d="M1464 1413l802 -1549h-534l-153 280h-1519l678 1269h726zM790 492h611l-306 594z" />
    <glyph glyph-name="dieresis" unicode="&#xa8;" horiz-adv-x="721" 
d="M74 1289l71 72q13 12 25 12q11 0 27 -14l69 -73q10 -14 10 -25q0 -13 -12 -27l-69 -75q-17 -17 -25 -17q-14 0 -25 12l-76 86q-9 12 -9 23q0 13 14 26zM439 1289l71 72q13 12 25 12q11 0 27 -13l69 -74q10 -14 10 -25q0 -13 -12 -26l-69 -76q-17 -17 -25 -17
q-14 0 -25 12l-76 87q-9 11 -9 22q0 13 14 26z" />
    <glyph glyph-name="acute" unicode="&#xb4;" horiz-adv-x="601" 
d="M351 1375q35 35 55.5 47t40.5 12q33 0 53.5 -20t20.5 -51q0 -22 -15.5 -42t-46.5 -40l-330 -203h-69z" />
    <glyph glyph-name="cedilla" unicode="&#xb8;" horiz-adv-x="548" 
d="M60 -290q85 -52 152 -52q66 0 94.5 21.5t28.5 66.5t-49 64q-40 16 -102 16q-16 0 -34 -2l48 176h63l-37 -104q32 4 62 5q86 0 134 -40.5t48 -113.5q0 -76 -58.5 -120.5t-160.5 -44.5q-109 0 -189 32v96z" />
    <glyph glyph-name="circumflex" unicode="&#x2c6;" horiz-adv-x="722" 
d="M60 1079l232 355h118l232 -355h-58l-233 216l-233 -216h-58z" />
    <glyph glyph-name="caron" unicode="&#x2c7;" horiz-adv-x="722" 
d="M60 1434h58l233 -214l233 214h58l-232 -356h-118z" />
    <glyph glyph-name="breve" unicode="&#x2d8;" horiz-adv-x="724" 
d="M60 1349h51q17 -73 75 -107t167 -34t166 33.5t74 107.5h51q-20 -133 -94 -201.5t-197 -68.5q-122 0 -197 69t-96 201z" />
    <glyph glyph-name="dotaccent" unicode="&#x2d9;" horiz-adv-x="355" 
d="M74 1289l69 72q6 6 13 9t14 3q6 0 12.5 -3t12.5 -9l71 -76q5 -4 7 -10t2 -14q-1 -9 -3 -15t-8 -12l-71 -76q-12 -11 -16 -13.5t-7 -2.5q-10 0 -16.5 2.5t-10.5 8.5l-75 87q-4 4 -6 9.5t-2 13.5q0 6 3 12.5t11 13.5z" />
    <glyph glyph-name="ring" unicode="&#x2da;" horiz-adv-x="495" 
d="M136 1257q0 -42 29 -71t71 -29t71 29t29 71q0 40 -29.5 69.5t-70.5 29.5t-70.5 -29.5t-29.5 -69.5zM60 1257q0 75 51 126t125 51q76 0 127.5 -51.5t51.5 -125.5q0 -75 -51.5 -126.5t-127.5 -51.5q-74 0 -125 51.5t-51 126.5z" />
    <glyph glyph-name="ogonek" unicode="&#x2db;" horiz-adv-x="508" 
d="M331 0q-71 -62 -110.5 -119.5t-39.5 -112.5q0 -47 27 -75t73 -28q40 0 69.5 15.5t49.5 48.5l28 -16q-36 -63 -90.5 -97t-119.5 -34q-70 0 -114 35.5t-44 90.5q0 76 60.5 156.5t161.5 135.5h49z" />
    <glyph glyph-name="tilde" unicode="&#x2dc;" horiz-adv-x="714" 
d="M634 1382q-20 -103 -68.5 -154t-126.5 -51h-4q-50 0 -113 23q-66 24 -114 24q-39 0 -60.5 -20.5t-33.5 -71.5h-54q19 106 68 158.5t129 52.5q46 -1 113 -24q64 -23 112 -23h4q36 0 58 20t36 66h54z" />
    <glyph glyph-name="hungarumlaut" unicode="&#x2dd;" horiz-adv-x="729" 
d="M60 1079l144 273q24 44 45.5 63t46.5 19q28 0 48 -20t20 -47q0 -16 -10.5 -35t-30.5 -41l-205 -212h-58zM345 1079l144 273q24 44 45.5 63t46.5 19q28 0 48 -20t20 -47q0 -16 -10.5 -35t-30.5 -41l-205 -212h-58z" />
    <glyph glyph-name="b" unicode="b" horiz-adv-x="2143" 
d="M60 1468h594q372 0 1001 -8q157 0 280 -119q68 -116 68 -297q0 -307 -195 -357h-8v-8q163 0 237 -187q17 -80 17 -127v-594q0 -47 9 -119q0 -407 -399 -407q-601 -9 -959 -9h-178v391h365q212 0 602 8q94 0 94 221v407q0 229 -51 229q0 14 -60 17h-950v331h806
q187 0 187 85v68q-12 85 -85 85h-212q-367 0 -1163 8v382z" />
    <glyph glyph-name="c" unicode="c" horiz-adv-x="2151" 
d="M1036 1485h322q505 0 603 -127q110 -87 110 -425v-34q0 -17 -17 -17h-458q-14 0 -42 153q-84 43 -289 43h-416q-254 0 -254 -94q-37 0 -43 -348q0 -365 136 -365q54 -13 382 -25v-399h-178q-551 0 -679 110q-153 97 -153 510v186q0 634 110 671q116 127 289 127
q173 34 577 34z" />
    <glyph glyph-name="d" unicode="d" horiz-adv-x="2245" 
d="M561 1468h288q1044 0 1044 -68q93 0 204 -195q68 -131 68 -509q0 -592 -170 -705q-84 -127 -857 -127h-1078v416h1146q415 0 415 76q43 17 51 204v212q0 208 -110 263q-104 26 -382 26h-619v407z" />
    <glyph glyph-name="e" unicode="e" horiz-adv-x="1914" 
d="M60 1468h1765v-382h-1281v-220h958v-357h-1442v959zM60 255h1519v-382h-1519v382z" />
    <glyph glyph-name="f" unicode="f" horiz-adv-x="1769" 
d="M77 1468h950v-382h-475v-297h1137v-356q0 -17 -17 -17h-1120v-1180h-492v2215q3 17 17 17z" />
    <glyph glyph-name="g" unicode="g" 
d="M1061 1493v-407h-8q-467 0 -467 -102q-27 0 -34 -220v-187q0 -251 68 -297q26 -17 102 -34q337 -8 492 -8q450 0 450 59q19 0 25 76v85h-636v323h1103q17 -3 17 -17v-26q0 -568 -59 -670q-128 -204 -510 -204q0 -17 -441 -17h-93q-791 0 -866 136q-144 94 -144 484v314
q0 515 187 602q44 71 526 102q235 0 288 8z" />
    <glyph glyph-name="h" unicode="h" 
d="M1664 1884h509v-1629h-518v195h-1077v-560q0 -17 -17 -17h-501v1213h518v-187h1086v985z" />
    <glyph glyph-name="i" unicode="i" horiz-adv-x="658" 
d="M60 1175h518v-1304h-518v1304zM68 1848h510v-493h-510v493z" />
    <glyph glyph-name="j" unicode="j" horiz-adv-x="1820" 
d="M1248 1137h492v-713q0 -359 -169 -458q-148 -102 -645 -102q-596 0 -739 119q-127 99 -127 450v136q3 16 17 16h475q0 -271 94 -271q105 -26 246 -26q339 0 339 85q17 0 17 60v704z" />
    <glyph glyph-name="k" unicode="k" horiz-adv-x="2007" 
d="M60 1909h492v-1001q525 491 645 594h730v-9l-908 -789l424 -356h-704l-187 153v-1239h-492v2647z" />
    <glyph glyph-name="l" unicode="l" horiz-adv-x="1786" 
d="M60 781h518v-476h1128v-415h-1646v891z" />
    <glyph glyph-name="m" unicode="m" horiz-adv-x="2440" 
d="M60 1485h789q43 -59 204 -424h-526q8 -434 8 -637v-534h-475v1595zM2360 1485v-2223h-467v1807h-8q0 -12 -586 -1179h-416q0 19 348 797q178 391 357 798h772z" />
    <glyph glyph-name="n" unicode="n" horiz-adv-x="2262" 
d="M1689 1960h493v-2070h-807q0 13 -712 1018q-96 134 -102 153h-9v-790h-492v1214h798l831 -1171v1646z" />
    <glyph glyph-name="o" unicode="o" horiz-adv-x="2321" 
d="M1146 1510q836 0 900 -93q85 -32 144 -170q51 -153 51 -415v-297q0 -500 -195 -586q-132 -85 -671 -85v424h9q278 0 322 77q43 34 51 271q0 416 -119 416q0 34 -449 34h-43q-534 0 -534 -68q-60 -40 -60 -237v-255q0 -149 94 -204q98 -34 297 -34v-424q-688 0 -756 144
q-127 88 -127 561v263q0 509 195 585q67 93 891 93z" />
    <glyph glyph-name="p" unicode="p" horiz-adv-x="2049" 
d="M60 1485h1112q609 0 670 -127q127 -95 127 -450v-34q0 -420 -169 -509q-128 -85 -433 -85h-823v-390h-484v789h1052q340 0 340 59q25 40 25 153q0 139 -68 170q-128 25 -585 25h-764v399z" />
    <glyph glyph-name="q" unicode="q" horiz-adv-x="2321" 
d="M1146 1485q836 0 900 -93q85 -32 144 -170q51 -153 51 -416v-297q0 -418 -127 -535q-109 -127 -552 -127v-356h-484v772h272q365 0 365 93q29 2 42 255q0 416 -119 416q0 34 -449 34h-43q-534 0 -534 -68q-60 -40 -60 -238v-254q0 -221 170 -221v-433h-9q-486 0 -577 195
q-76 135 -76 501v263q0 509 195 586q67 93 891 93z" />
    <glyph glyph-name="r" unicode="r" horiz-adv-x="2126" 
d="M60 1460h1307q448 0 518 -60q152 -108 152 -348q9 -106 9 -119q0 -270 -85 -364q-106 -85 -221 -85h-42q17 -142 17 -433q0 -17 -17 -17h-458q-17 0 -17 17v212h-671v-1010h-492v1417h1095q373 0 373 51q17 55 17 77v135q0 119 -144 119h-1341v408z" />
    <glyph glyph-name="s" unicode="s" horiz-adv-x="2075" 
d="M747 1477h68v-365q-280 0 -280 -94v-51q0 -93 246 -93q976 -28 976 -68q126 -41 178 -136q60 -97 60 -314q0 -363 -204 -458q-112 -59 -925 -59h-51v382l85 -9h85q509 0 509 43q26 44 26 101q0 111 -153 111q-1137 29 -1137 93q-170 88 -170 356v94q0 297 187 407
q146 60 500 60z" />
    <glyph glyph-name="t" unicode="t" horiz-adv-x="2066" 
d="M60 1460h1926v-416h-704v-560h-518v560h-704v416z" />
    <glyph glyph-name="u" unicode="u" horiz-adv-x="2202" 
d="M60 772h484q0 -441 76 -441q37 -60 357 -60h263q348 0 348 94q41 0 50 407h484v-68q0 -485 -59 -611q-77 -139 -272 -203q-178 -43 -611 -43h-170q-656 0 -789 119q-161 107 -161 501v305z" />
    <glyph glyph-name="v" unicode="v" horiz-adv-x="2287" 
d="M60 1884h543q718 -1499 781 -1596l288 611h535l-501 -1026h-662q0 13 -984 2011z" />
    <glyph glyph-name="w" unicode="w" horiz-adv-x="3271" 
d="M60 1468h475q28 0 144 -373q26 -39 281 -781h17q76 294 347 1154h569q24 0 238 -755q25 -53 127 -408h-450l-187 713h-8q-289 -1084 -382 -1383l144 -399h-492q0 14 -823 2215v17zM3191 1468q0 -31 -441 -1163h-484q43 138 416 1163h509z" />
    <glyph glyph-name="x" unicode="x" horiz-adv-x="2779" 
d="M2114 1892h585v-17q-829 -845 -1162 -1196v-9l517 -526h-653l-204 212l-441 -483h-696q0 8 806 806q-361 370 -517 543v8h636q204 -229 212 -229q789 883 798 883q72 8 119 8z" />
    <glyph glyph-name="y" unicode="y" horiz-adv-x="2228" 
d="M60 1477h628q520 -637 526 -637q0 20 323 416h611v-9q-576 -677 -679 -806v-288h-509v288q-62 79 -892 1010q-8 17 -8 26z" />
    <glyph glyph-name="z" unicode="z" horiz-adv-x="2109" 
d="M960 1477h1035v-365q-19 -28 -560 -408l-586 -433h9q803 9 1094 9q8 0 68 8l9 -17v-390h-1969v382q1074 768 1129 823h-128l-101 -8v399z" />
    <glyph glyph-name="exclam" unicode="!" horiz-adv-x="649" 
d="M69 1957h518v-1378h-518v1378zM77 353h510v-495h-510v495z" />
    <glyph glyph-name="quotedbl" unicode="&#x22;" horiz-adv-x="1281" 
d="M701 1934h518v-858h-518v858zM56 1934h518v-858h-518v858z" />
    <glyph glyph-name="quotesingle" unicode="'" horiz-adv-x="627" 
d="M56 1934h518v-858h-518v858z" />
    <glyph glyph-name="parenleft" unicode="(" horiz-adv-x="877" 
d="M682 -130q-394 0 -501 162q-119 134 -119 796v171q0 437 43 617q64 196 203 274q126 60 461 60h68v-489q-257 -9 -257 -50q-94 0 -94 -351v-265q0 -323 60 -361q0 -76 291 -76v-488h-155z" />
    <glyph glyph-name="parenright" unicode=")" horiz-adv-x="872" 
d="M48 -130v488q291 0 291 76q60 38 60 361v265q0 351 -94 351q0 41 -257 50v489h68q335 0 461 -60q139 -78 203 -274q43 -180 43 -617v-171q0 -662 -119 -796q-107 -162 -501 -162h-155z" />
    <glyph glyph-name="plus" unicode="+" horiz-adv-x="1375" 
d="M57 241v518h1256v-518h-1256zM426 1128h518v-1256h-518v1256z" />
    <glyph glyph-name="comma" unicode="," horiz-adv-x="652" 
d="M61 352h518v-955h-518v955z" />
    <glyph glyph-name="hyphen" unicode="-" horiz-adv-x="1370" 
d="M57 241v518h1256v-518h-1256z" />
    <glyph glyph-name="slash" unicode="/" horiz-adv-x="1582" 
d="M567 -127h-541l982 2011h543z" />
    <glyph glyph-name="colon" unicode=":" horiz-adv-x="660" 
d="M77 999h510v-495h-510v495zM77 353h510v-495h-510v495z" />
    <glyph glyph-name="semicolon" unicode=";" horiz-adv-x="655" 
d="M67 999h510v-495h-510v495zM61 349h518v-952h-518v952z" />
    <glyph glyph-name="equal" unicode="=" horiz-adv-x="1379" 
d="M57 42v518h1256v-518h-1256zM57 683v518h1256v-518h-1256z" />
    <glyph glyph-name="question" unicode="?" horiz-adv-x="2031" 
d="M773 1859h602q480 0 527 -170q59 -70 59 -357q0 -332 -102 -424q-102 -102 -484 -102h-638v357h545q212 0 212 85q9 44 9 84q0 162 -102 162q-53 8 -119 8h-458q-280 0 -280 -76q-9 -88 -9 -102h-475q0 376 161 450q147 85 552 85zM733 1153h518v-648h-518v648zM741 353
h510v-495h-510v495z" />
    <glyph glyph-name="bracketleft" unicode="[" horiz-adv-x="875" 
d="M60 -577v1607h492v-1242h264v-382h-739q-14 0 -17 17zM77 1940h739v-382h-264v-1242h-492v1607q3 17 17 17z" />
    <glyph glyph-name="backslash" unicode="\" horiz-adv-x="1592" 
d="M26 1884h543l982 -2011h-541z" />
    <glyph glyph-name="bracketright" unicode="]" horiz-adv-x="875" 
d="M799 -594h-739v382h264v1242h492v-1607q-3 -17 -17 -17zM816 1923v-1607h-492v1242h-264v382h739q14 0 17 -17z" />
    <glyph glyph-name="agrave" unicode="&#xe0;" horiz-adv-x="2267" 
d="M1434 1413l802 -1549h-534l-153 280h-1519l678 1269h726zM760 492h611l-306 594zM441 1398v518h1256v-518h-1256z" />
    <glyph glyph-name="acircumflex" unicode="&#xe2;" horiz-adv-x="2252" 
d="M1432 1413l802 -1549h-534l-153 280h-1519l678 1269h726zM758 492h611l-306 594zM439 1398v518h1256v-518h-1256z" />
    <glyph glyph-name="adieresis" unicode="&#xe4;" horiz-adv-x="2330" 
d="M1464 1413l802 -1549h-534l-153 280h-1519l678 1269h726zM790 492h611l-306 594zM644 1553v402h390v-402h-390zM1153 1553v402h390v-402h-390z" />
    <glyph glyph-name="ccedilla" unicode="&#xe7;" horiz-adv-x="2137" 
d="M1036 1485h322q505 0 603 -127q110 -87 110 -425v-34q0 -17 -17 -17h-458q-14 0 -42 153q-84 43 -289 43h-416q-254 0 -254 -94q-37 0 -43 -348q0 -365 136 -365q54 -13 679 -25v-399h-475q-551 0 -679 110q-153 97 -153 510v186q0 634 110 671q116 127 289 127
q173 34 577 34zM686 -640h-68v365q280 0 280 94v51q0 93 475 51v-94q0 -297 -187 -407q-146 -60 -500 -60z" />
    <glyph glyph-name="egrave" unicode="&#xe8;" horiz-adv-x="1887" 
d="M60 1468h1765v-382h-1281v-220h958v-357h-1442v959zM60 255h1519v-382h-1519v382zM459 1954h953v-382h-953v382z" />
    <glyph glyph-name="eacute" unicode="&#xe9;" horiz-adv-x="1882" 
d="M60 1468h1765v-382h-1281v-220h958v-357h-1442v959zM60 255h1519v-382h-1519v382zM459 1954h953v-382h-953v382z" />
    <glyph glyph-name="ecircumflex" unicode="&#xea;" horiz-adv-x="1887" 
d="M60 1468h1765v-382h-1281v-220h958v-357h-1442v959zM60 255h1519v-382h-1519v382zM459 1954h953v-382h-953v382z" />
    <glyph glyph-name="edieresis" unicode="&#xeb;" horiz-adv-x="1908" 
d="M60 1468h1765v-382h-1281v-220h958v-357h-1442v959zM60 255h1519v-382h-1519v382zM385 1553v402h390v-402h-390zM894 1553v402h390v-402h-390z" />
    <glyph glyph-name="icircumflex" unicode="&#xee;" horiz-adv-x="948" 
d="M201 1175h518v-1304h-518v1304zM-6 1900h953v-382h-953v382z" />
    <glyph glyph-name="idieresis" unicode="&#xef;" horiz-adv-x="925" 
d="M196 1175h518v-1304h-518v1304zM8 1499v402h390v-402h-390zM517 1499v402h390v-402h-390z" />
    <glyph glyph-name="ocircumflex" unicode="&#xf4;" horiz-adv-x="2311" 
d="M1146 1510q836 0 900 -93q85 -32 144 -170q51 -153 51 -415v-297q0 -500 -195 -586q-132 -85 -671 -85v424h9q278 0 322 77q43 34 51 271q0 416 -119 416q0 34 -449 34h-43q-534 0 -534 -68q-60 -40 -60 -237v-255q0 -149 94 -204q98 -34 297 -34v-424q-688 0 -756 144
q-127 88 -127 561v263q0 509 195 585q67 93 891 93zM665 1954h953v-382h-953v382z" />
    <glyph glyph-name="odieresis" unicode="&#xf6;" horiz-adv-x="2300" 
d="M1146 1510q836 0 900 -93q85 -32 144 -170q51 -153 51 -415v-297q0 -500 -195 -586q-132 -85 -671 -85v424h9q278 0 322 77q43 34 51 271q0 416 -119 416q0 34 -449 34h-43q-534 0 -534 -68q-60 -40 -60 -237v-255q0 -149 94 -204q98 -34 297 -34v-424q-688 0 -756 144
q-127 88 -127 561v263q0 509 195 585q67 93 891 93zM695 1559v402h390v-402h-390zM1204 1559v402h390v-402h-390z" />
    <glyph glyph-name="ugrave" unicode="&#xf9;" horiz-adv-x="2201" 
d="M60 772h484q0 -441 76 -441q37 -60 357 -60h263q348 0 348 94q41 0 50 407h484v-68q0 -485 -59 -611q-77 -139 -272 -203q-178 -43 -611 -43h-170q-656 0 -789 119q-161 107 -161 501v305zM665 1954h953v-382h-953v382z" />
    <glyph glyph-name="ucircumflex" unicode="&#xfb;" horiz-adv-x="2201" 
d="M60 772h484q0 -441 76 -441q37 -60 357 -60h263q348 0 348 94q41 0 50 407h484v-68q0 -485 -59 -611q-77 -139 -272 -203q-178 -43 -611 -43h-170q-656 0 -789 119q-161 107 -161 501v305zM665 1954h953v-382h-953v382z" />
    <glyph glyph-name="udieresis" unicode="&#xfc;" horiz-adv-x="2195" 
d="M60 772h484q0 -441 76 -441q37 -60 357 -60h263q348 0 348 94q41 0 50 407h484v-68q0 -485 -59 -611q-77 -139 -272 -203q-178 -43 -611 -43h-170q-656 0 -789 119q-161 107 -161 501v305zM639 1497v402h390v-402h-390zM1148 1497v402h390v-402h-390z" />
    <glyph glyph-name="period" unicode="." horiz-adv-x="626" 
d="M62 353h510v-495h-510v495z" />
  </font>
</defs>
</svg>
